<?xml version="1.0" encoding="utf-8"?>
<!-- Generator: Adobe Illustrator 23.0.0, SVG Export Plug-In . SVG Version: 6.00 Build 0)  -->
<svg version="1.1" id="Layer_1" xmlns="http://www.w3.org/2000/svg" xmlns:xlink="http://www.w3.org/1999/xlink" x="0px" y="0px"
	 viewBox="0 0 1920 1080" style="enable-background:new 0 0 1920 1080;" xml:space="preserve">
<style type="text/css">
	.st0{fill:#3372A9;}
	.st1{fill:#007A66;}
	.st2{fill:#00416B;}
	.st3{fill:#7D002E;}
	.st4{fill:#DC649C;}
	.st5{fill:#692C7A;}
	.st6{fill:#F15D2A;}
	.st7{fill:#D51D52;}
	.st8{fill:#DEC623;}
	.st9{fill:#4DB748;}
</style>
<path class="st0" d="M760.7,836.8c55.8,37.3,120,57.9,187.3,60V579L845.8,719.7L760.7,836.8z"/>
<path class="st1" d="M1159.6,835.9L973,579v317.7C1040.1,894.2,1104.2,873.3,1159.6,835.9z"/>
<path class="st2" d="M623.4,663.2c23.2,62.3,64.2,118,117,159l154.4-212.4l33-45.4l-21.4,7L623.4,663.2z"/>
<polygon class="st2" points="927.8,564.3 927.8,564.3 894.8,609.7 "/>
<path class="st3" d="M948,502V180.3c-68.1,2.1-133.1,23.2-189.3,61.3l175.1,240.9L948,502L948,502z"/>
<path class="st4" d="M738.5,256.3c-52.9,41.6-93.8,98-116.5,161.1l305.7,99.3l-96-132.2L738.5,256.3z"/>
<polygon class="st4" points="831.7,384.6 927.8,516.7 927.8,516.7 "/>
<path class="st5" d="M920,540.5L920,540.5l-193.5-62.9l-112-36.4c-8.9,31.5-13.4,64.2-13.4,97.3c0,34.4,4.8,68.3,14.4,101L920,540.5
	L920,540.5z"/>
<polygon class="st5" points="615.5,639.5 615.5,639.5 920.1,540.5 920,540.5 "/>
<polygon class="st5" points="920.1,540.5 726.5,477.6 920,540.5 "/>
<path class="st6" d="M1297.1,418c-22.5-62.8-62.9-119.1-115.4-160.7l-20,27.5L993.2,516.7L1297.1,418z"/>
<path class="st7" d="M1161.6,242.5c-55.9-38.3-120.7-59.6-188.6-62.1V502v0L1161.6,242.5z"/>
<polygon class="st7" points="973,502 1161.6,242.5 1161.6,242.5 973,502 "/>
<path class="st8" d="M1317.9,538.5c0-32.9-4.4-65.3-13.2-96.7L1001,540.5l302.7,98.4C1313.1,606.4,1317.9,572.7,1317.9,538.5z"/>
<path class="st9" d="M993.2,564.3L993.2,564.3l56.6,77.8l130.1,179c52.4-40.9,93-96.5,116-158.6l-234.7-76.3L993.2,564.3
	L993.2,564.3z"/>
<polygon class="st9" points="993.2,564.3 1049.8,642.1 993.2,564.3 "/>
<polygon class="st9" points="993.2,564.3 993.2,564.3 993.2,564.3 993.2,564.3 "/>
<polygon class="st9" points="993.2,564.3 993.2,564.3 993.2,564.3 993.2,564.3 "/>
<polygon class="st9" points="1295.8,662.6 1061.1,586.3 1295.8,662.6 "/>
<path d="M1001,540.5L1001,540.5l315.6-102.6c-1.1-4-2.3-8-3.6-12c-1.3-4-2.6-7.9-4-11.8l-11.9,3.9l-303.9,98.7l168.5-231.9l20-27.5
	l7.3-10.1c-3.3-2.6-6.6-5.1-9.9-7.6c-3.4-2.5-6.8-4.9-10.2-7.2l-7.3,10.1c0,0,0,0,0,0L973,502v0v0V180.4v-12.5
	c-4.2-0.1-8.3-0.2-12.5-0.3c-0.3,0-0.7,0-1,0c-3.8,0-7.7,0.1-11.5,0.2v12.5V502v0l-14.2-19.5L758.7,241.6l-7.3-10.1
	c-3.4,2.3-6.9,4.7-10.2,7.2c-3.4,2.5-6.7,5-10,7.5l100.5,138.4l96,132.2l0,0l0,0L610.2,413.5c-1.4,3.9-2.8,7.9-4,11.8
	c-1.3,4-2.5,8-3.6,12l123.9,40.3l193.5,62.9l0,0l0,0l0,0l0,0l-304.5,99c0,0,0,0,0,0l-11.9,3.9c1.2,4,2.4,8,3.7,11.9
	c1.3,4,2.7,7.9,4.1,11.8l11.9-3.9l282.9-91.9l21.4-7l0,0l-33,45.4L733.1,832.3c3.3,2.5,6.6,5,10,7.5c3.4,2.4,6.8,4.8,10.3,7.1
	l7.3-10.1l85.1-117.1L948,579v317.8v12.5c3.8,0.1,7.7,0.2,11.5,0.2c0.3,0,0.7,0,1,0c4.2,0,8.3-0.1,12.5-0.3v-12.5V579v0l194,267
	c3.5-2.3,6.9-4.7,10.2-7.2c3.4-2.5,6.7-5,10-7.5l-137.4-189.1l-56.6-77.8l0,0h0l0,0l67.9,22.1l234.7,76.3c0,0,0,0,0,0l11.9,3.9
	c1.4-3.9,2.8-7.8,4.1-11.8c1.3-3.9,2.5-7.9,3.7-11.9l-11.9-3.9L1001,540.5z"/>
</svg>
